<mxfile host="app.diagrams.net" modified="2021-10-06T19:20:57.318Z" agent="5.0 (Windows NT 10.0; Win64; x64) AppleWebKit/537.36 (KHTML, like Gecko) Chrome/94.0.4606.71 Safari/537.36" etag="ewpzUXVhR1jstbIxUXml" version="15.4.3" type="github">
  <diagram id="jyNJutQ-6b1TkjpkFKjp" name="Page-1">
    <mxGraphModel dx="1422" dy="2051" grid="1" gridSize="10" guides="1" tooltips="1" connect="1" arrows="1" fold="1" page="1" pageScale="1" pageWidth="827" pageHeight="1169" math="0" shadow="0">
      <root>
        <mxCell id="0" />
        <mxCell id="1" parent="0" />
        <mxCell id="fcIhs9XxAMFdkN0sCxzK-1" value="Third Party Claim" style="shape=umlFrame;whiteSpace=wrap;html=1;width=100;height=30;" parent="1" vertex="1">
          <mxGeometry x="250" y="-40" width="300" height="580" as="geometry" />
        </mxCell>
        <mxCell id="fcIhs9XxAMFdkN0sCxzK-2" value="Report Incident" style="ellipse;whiteSpace=wrap;html=1;" parent="1" vertex="1">
          <mxGeometry x="320" width="140" height="50" as="geometry" />
        </mxCell>
        <mxCell id="fcIhs9XxAMFdkN0sCxzK-23" style="edgeStyle=none;rounded=0;orthogonalLoop=1;jettySize=auto;html=1;exitX=0.5;exitY=0.5;exitDx=0;exitDy=0;exitPerimeter=0;entryX=1;entryY=0.5;entryDx=0;entryDy=0;endArrow=none;endFill=0;" parent="1" source="fcIhs9XxAMFdkN0sCxzK-3" target="fcIhs9XxAMFdkN0sCxzK-10" edge="1">
          <mxGeometry relative="1" as="geometry" />
        </mxCell>
        <mxCell id="fcIhs9XxAMFdkN0sCxzK-3" value="Third Party" style="shape=umlActor;verticalLabelPosition=bottom;verticalAlign=top;html=1;" parent="1" vertex="1">
          <mxGeometry x="610" y="-10" width="30" height="60" as="geometry" />
        </mxCell>
        <mxCell id="fcIhs9XxAMFdkN0sCxzK-27" style="edgeStyle=none;rounded=0;orthogonalLoop=1;jettySize=auto;html=1;exitX=1;exitY=0.3333333333333333;exitDx=0;exitDy=0;exitPerimeter=0;entryX=0;entryY=0.5;entryDx=0;entryDy=0;endArrow=none;endFill=0;" parent="1" source="fcIhs9XxAMFdkN0sCxzK-4" target="fcIhs9XxAMFdkN0sCxzK-12" edge="1">
          <mxGeometry relative="1" as="geometry" />
        </mxCell>
        <mxCell id="fcIhs9XxAMFdkN0sCxzK-4" value="Assessor" style="shape=umlActor;verticalLabelPosition=bottom;verticalAlign=top;html=1;" parent="1" vertex="1">
          <mxGeometry x="160" y="280" width="30" height="60" as="geometry" />
        </mxCell>
        <mxCell id="fcIhs9XxAMFdkN0sCxzK-21" style="edgeStyle=none;rounded=0;orthogonalLoop=1;jettySize=auto;html=1;exitX=0.5;exitY=0.5;exitDx=0;exitDy=0;exitPerimeter=0;endArrow=none;endFill=0;entryX=0.979;entryY=0.66;entryDx=0;entryDy=0;entryPerimeter=0;" parent="1" source="fcIhs9XxAMFdkN0sCxzK-5" target="fcIhs9XxAMFdkN0sCxzK-12" edge="1">
          <mxGeometry relative="1" as="geometry" />
        </mxCell>
        <mxCell id="fcIhs9XxAMFdkN0sCxzK-5" value="Expert Witness" style="shape=umlActor;verticalLabelPosition=bottom;verticalAlign=top;html=1;" parent="1" vertex="1">
          <mxGeometry x="620" y="260" width="30" height="60" as="geometry" />
        </mxCell>
        <mxCell id="fcIhs9XxAMFdkN0sCxzK-22" style="edgeStyle=none;rounded=0;orthogonalLoop=1;jettySize=auto;html=1;exitX=0.5;exitY=0.5;exitDx=0;exitDy=0;exitPerimeter=0;endArrow=none;endFill=0;" parent="1" source="fcIhs9XxAMFdkN0sCxzK-6" target="fcIhs9XxAMFdkN0sCxzK-9" edge="1">
          <mxGeometry relative="1" as="geometry" />
        </mxCell>
        <mxCell id="fcIhs9XxAMFdkN0sCxzK-6" value="Underwriter" style="shape=umlActor;verticalLabelPosition=bottom;verticalAlign=top;html=1;" parent="1" vertex="1">
          <mxGeometry x="620" y="130" width="30" height="60" as="geometry" />
        </mxCell>
        <mxCell id="fcIhs9XxAMFdkN0sCxzK-24" style="edgeStyle=none;rounded=0;orthogonalLoop=1;jettySize=auto;html=1;exitX=0.5;exitY=0.5;exitDx=0;exitDy=0;exitPerimeter=0;endArrow=none;endFill=0;" parent="1" source="fcIhs9XxAMFdkN0sCxzK-7" target="fcIhs9XxAMFdkN0sCxzK-2" edge="1">
          <mxGeometry relative="1" as="geometry" />
        </mxCell>
        <mxCell id="fcIhs9XxAMFdkN0sCxzK-25" style="edgeStyle=none;rounded=0;orthogonalLoop=1;jettySize=auto;html=1;exitX=0.5;exitY=0.5;exitDx=0;exitDy=0;exitPerimeter=0;entryX=0;entryY=0.5;entryDx=0;entryDy=0;endArrow=none;endFill=0;" parent="1" source="fcIhs9XxAMFdkN0sCxzK-7" target="fcIhs9XxAMFdkN0sCxzK-10" edge="1">
          <mxGeometry relative="1" as="geometry" />
        </mxCell>
        <mxCell id="fcIhs9XxAMFdkN0sCxzK-7" value="Driver" style="shape=umlActor;verticalLabelPosition=bottom;verticalAlign=top;html=1;" parent="1" vertex="1">
          <mxGeometry x="170" y="-10" width="30" height="60" as="geometry" />
        </mxCell>
        <mxCell id="fcIhs9XxAMFdkN0sCxzK-20" value="Extends" style="edgeStyle=none;rounded=0;orthogonalLoop=1;jettySize=auto;html=1;exitX=0.5;exitY=1;exitDx=0;exitDy=0;entryX=0.66;entryY=0.064;entryDx=0;entryDy=0;entryPerimeter=0;dashed=1;" parent="1" source="fcIhs9XxAMFdkN0sCxzK-9" target="fcIhs9XxAMFdkN0sCxzK-12" edge="1">
          <mxGeometry relative="1" as="geometry" />
        </mxCell>
        <mxCell id="fcIhs9XxAMFdkN0sCxzK-9" value="Refer to Underwriter&lt;span style=&quot;color: rgba(0 , 0 , 0 , 0) ; font-family: monospace ; font-size: 0px&quot;&gt;%3CmxGraphModel%3E%3Croot%3E%3CmxCell%20id%3D%220%22%2F%3E%3CmxCell%20id%3D%221%22%20parent%3D%220%22%2F%3E%3CmxCell%20id%3D%222%22%20value%3D%22Report%20Incident%22%20style%3D%22ellipse%3BwhiteSpace%3Dwrap%3Bhtml%3D1%3B%22%20vertex%3D%221%22%20parent%3D%221%22%3E%3CmxGeometry%20x%3D%22320%22%20width%3D%22140%22%20height%3D%2250%22%20as%3D%22geometry%22%2F%3E%3C%2FmxCell%3E%3C%2Froot%3E%3C%2FmxGraphModel%3E&lt;/span&gt;&lt;span style=&quot;color: rgba(0 , 0 , 0 , 0) ; font-family: monospace ; font-size: 0px&quot;&gt;%3CmxGraphModel%3E%3Croot%3E%3CmxCell%20id%3D%220%22%2F%3E%3CmxCell%20id%3D%221%22%20parent%3D%220%22%2F%3E%3CmxCell%20id%3D%222%22%20value%3D%22Report%20Incident%22%20style%3D%22ellipse%3BwhiteSpace%3Dwrap%3Bhtml%3D1%3B%22%20vertex%3D%221%22%20parent%3D%221%22%3E%3CmxGeometry%20x%3D%22320%22%20width%3D%22140%22%20height%3D%2250%22%20as%3D%22geometry%22%2F%3E%3C%2FmxCell%3E%3C%2Froot%3E%3C%2FmxGraphModel%3E&lt;/span&gt;" style="ellipse;whiteSpace=wrap;html=1;" parent="1" vertex="1">
          <mxGeometry x="390" y="140" width="140" height="50" as="geometry" />
        </mxCell>
        <mxCell id="fcIhs9XxAMFdkN0sCxzK-10" value="Verify Incident" style="ellipse;whiteSpace=wrap;html=1;" parent="1" vertex="1">
          <mxGeometry x="320" y="70" width="140" height="50" as="geometry" />
        </mxCell>
        <mxCell id="fcIhs9XxAMFdkN0sCxzK-18" value="Extends" style="rounded=0;orthogonalLoop=1;jettySize=auto;html=1;exitX=0.5;exitY=0;exitDx=0;exitDy=0;dashed=1;" parent="1" source="fcIhs9XxAMFdkN0sCxzK-11" target="fcIhs9XxAMFdkN0sCxzK-12" edge="1">
          <mxGeometry relative="1" as="geometry" />
        </mxCell>
        <mxCell id="fcIhs9XxAMFdkN0sCxzK-11" value="Reject Claim" style="ellipse;whiteSpace=wrap;html=1;" parent="1" vertex="1">
          <mxGeometry x="260" y="290" width="100" height="50" as="geometry" />
        </mxCell>
        <mxCell id="fcIhs9XxAMFdkN0sCxzK-12" value="Assess Claim" style="ellipse;whiteSpace=wrap;html=1;" parent="1" vertex="1">
          <mxGeometry x="320" y="220" width="140" height="50" as="geometry" />
        </mxCell>
        <mxCell id="fcIhs9XxAMFdkN0sCxzK-19" value="Extends" style="edgeStyle=none;rounded=0;orthogonalLoop=1;jettySize=auto;html=1;exitX=0.5;exitY=0;exitDx=0;exitDy=0;dashed=1;" parent="1" source="fcIhs9XxAMFdkN0sCxzK-13" target="fcIhs9XxAMFdkN0sCxzK-12" edge="1">
          <mxGeometry relative="1" as="geometry" />
        </mxCell>
        <mxCell id="fcIhs9XxAMFdkN0sCxzK-13" value="Accept Claim" style="ellipse;whiteSpace=wrap;html=1;" parent="1" vertex="1">
          <mxGeometry x="440" y="290" width="100" height="50" as="geometry" />
        </mxCell>
        <mxCell id="fcIhs9XxAMFdkN0sCxzK-14" value="Make Payment" style="ellipse;whiteSpace=wrap;html=1;" parent="1" vertex="1">
          <mxGeometry x="340" y="440" width="100" height="50" as="geometry" />
        </mxCell>
        <mxCell id="fcIhs9XxAMFdkN0sCxzK-16" value="Includes" style="edgeStyle=orthogonalEdgeStyle;rounded=0;orthogonalLoop=1;jettySize=auto;html=1;exitX=0.5;exitY=1;exitDx=0;exitDy=0;entryX=0.5;entryY=0;entryDx=0;entryDy=0;dashed=1;" parent="1" source="fcIhs9XxAMFdkN0sCxzK-15" target="fcIhs9XxAMFdkN0sCxzK-14" edge="1">
          <mxGeometry relative="1" as="geometry" />
        </mxCell>
        <mxCell id="fcIhs9XxAMFdkN0sCxzK-17" value="Extends" style="edgeStyle=orthogonalEdgeStyle;rounded=0;orthogonalLoop=1;jettySize=auto;html=1;exitX=0.5;exitY=0;exitDx=0;exitDy=0;entryX=0.5;entryY=1;entryDx=0;entryDy=0;dashed=1;" parent="1" source="fcIhs9XxAMFdkN0sCxzK-15" target="fcIhs9XxAMFdkN0sCxzK-12" edge="1">
          <mxGeometry relative="1" as="geometry" />
        </mxCell>
        <mxCell id="fcIhs9XxAMFdkN0sCxzK-15" value="Settle Payment" style="ellipse;whiteSpace=wrap;html=1;" parent="1" vertex="1">
          <mxGeometry x="340" y="340" width="100" height="50" as="geometry" />
        </mxCell>
      </root>
    </mxGraphModel>
  </diagram>
</mxfile>
